<svg width="97" height="21" viewBox="0 0 97 21" xmlns="http://www.w3.org/2000/svg"><g fill-rule="nonzero" fill="none"><path d="M19.534 5.818a17.911 17.911 0 0 0-1.758-1.628c-.46-.4-.992-.838-1.608-1.312-1.712-1.313-1.986-1.73-2.567-2.353-.175-.188-.478-.455-.891-.513-.411-.058-.775.113-.998.244-.73.438-1.113.761-3.126 1.545-.625.244-1.183.48-1.682.706-.827.33-1.627.722-2.394 1.174a8.848 8.848 0 0 0-4.34 6.363 8.578 8.578 0 0 0 .778 5.05l.004.01c.053.112.107.221.167.33.071.13.149.255.233.377 1.608 2.553 4.727 4.38 8.386 4.9 3.66.52 7.161-.362 9.421-2.36.114-.093.224-.192.328-.296.098-.1.185-.194.27-.29l.009-.009c.04-.043.077-.088.12-.133a8.596 8.596 0 0 0 2.029-4.488 8.83 8.83 0 0 0-2.38-7.317zM10.28 16.924zm7.82-4.307a4.761 4.761 0 0 1-1.127 2.498l-.061.067c-.052.058-.103.116-.155.171a.93.93 0 0 1-.093.077c-1.344 1.236-3.762 1.865-6.394 1.49-2.632-.374-4.778-1.652-5.721-3.213a.866.866 0 0 1-.066-.1c-.035-.064-.065-.131-.098-.198l-.048-.096a4.759 4.759 0 0 1-.376-2.703 5.007 5.007 0 0 1 1.566-2.954c.364-.37.776-.69 1.225-.951a11.311 11.311 0 0 1 1.555-.758c.324-.147.687-.3 1.093-.46.955-.371 1.345-.584 1.672-.782.24-.155.478-.317.714-.486h.01a.427.427 0 0 1 .304-.077c.107.015.205.07.274.154h.005l.008.01c.123.154.248.308.376.463.31.347.558.643 1.561 1.413.4.31.745.592 1.045.85.403.327.784.682 1.139 1.06.351.37.652.782.897 1.228a5 5 0 0 1 .695 3.297z" fill="#FFD000"/><path d="M42.422 14.473v-1.6h-6.897v-1.342h6.556V9.837h-6.553V8.494h6.553V6.8h-6.553V5.458h6.898v-1.6h-2.2V2.536h-1.752l-.406 1.322h-7.063L30.6 2.536h-1.752v1.322h-2.196v1.6h6.897V6.8h-6.556v1.694h6.553v1.343h-6.553v1.694h6.553v1.343h-6.897v1.6h6.31c-1.506 1.699-4.15 2.508-6.31 2.517v1.757c2.043-.006 3.958-.498 5.539-1.424a8.036 8.036 0 0 0 2.346-2.04 8.023 8.023 0 0 0 2.348 2.04c1.58.926 3.496 1.418 5.541 1.424V16.99c-2.163-.008-4.81-.818-6.315-2.517h6.315zM45.079 18.73h13.85a1.908 1.908 0 0 0 1.912-1.904V2.794H45.079V18.73zm1.727-14.21h12.306v12.054c0 .24-.195.434-.435.435h-11.87V4.519z" fill="#000"/><path d="M56.677 5.59h-1.826v1.435h-6.765v1.657h2.971c-.514 3.456-1.975 6.328-2.362 7.042h2.093c.662-1.376 1.742-3.987 2.149-7.042h1.915v3.485c.001 1.195-.12 2.387-.359 3.557h1.832c.236-1.17.354-2.362.354-3.557V8.682h1.24V7.025h-1.24l-.002-1.435zM73.022 8.746h3.142c1.053 0 2.363-.858 2.363-1.917V2.874H63.492V18.38h3.3a15.806 15.806 0 0 0 4.01-.52v-1.786a14.36 14.36 0 0 1-4.003.566h-1.55v-4.04h6.674a9.994 9.994 0 0 0 2.563 3.825 10.747 10.747 0 0 0 4.31 2.404v-1.906a8.86 8.86 0 0 1-3.073-1.831 8.153 8.153 0 0 1-1.832-2.491h4.904v-1.646h-5.497a9.622 9.622 0 0 1-.276-2.208zM76.67 4.52v2.008c0 .314-.57.57-.882.57H65.243V4.52H76.67zm-11.427 6.434V8.746H71.2c.006.742.084 1.481.233 2.208h-6.19zM85.74 8.66h4.267l-.355 1.345h-3.91v8.804h8.888c.842 0 1.525-.68 1.525-1.52v-7.282h-4.64l.355-1.345h4.285V7.014H85.74V8.66zm8.28 8.572h-6.478v-2.02h6.808v1.687c0 .182-.147.33-.33.33v.003zm.332-3.63h-6.81v-2.02h6.808l.002 2.02zM83.376 6.589c-.648 1.313-1.736 2.725-2.524 3.264v2.366c.388-.24.757-.511 1.104-.809v7.428h1.761v-8.717h-.477a15.29 15.29 0 0 0 2.194-3.532h-2.058zM89.558 3.144v-.732h-2v.732h-6.376V6.225h1.825v-1.37h11.587v1.37h1.825V3.144z" fill="#000"/></g></svg>
